<?xml version="1.0" standalone="no"?>
<!DOCTYPE svg PUBLIC "-//W3C//DTD SVG 20010904//EN"
 "http://www.w3.org/TR/2001/REC-SVG-20010904/DTD/svg10.dtd">
<svg version="1.0" xmlns="http://www.w3.org/2000/svg"
 width="831.000000pt" height="546.000000pt" viewBox="0 0 831.000000 546.000000"
 preserveAspectRatio="xMidYMid meet">

<g transform="translate(0.000000,546.000000) scale(0.100000,-0.100000)"
fill="#000000" stroke="none">
<path d="M4225 5450 c-201 -32 -451 -143 -669 -298 -124 -88 -294 -262 -344
-352 -23 -41 -42 -83 -42 -92 0 -39 -20 -22 -61 53 -38 70 -50 83 -93 104 -62
31 -104 31 -192 1 -164 -55 -226 -101 -240 -173 -9 -50 4 -95 85 -292 38 -91
131 -323 207 -516 75 -192 209 -532 296 -755 88 -223 186 -472 218 -555 32
-82 67 -173 78 -201 l21 -52 -397 -155 c-218 -86 -431 -168 -472 -183 -212
-76 -511 -150 -760 -190 -143 -22 -372 -15 -485 15 -391 104 -648 446 -731
970 -20 128 -15 354 10 445 89 319 303 517 665 614 81 21 117 25 236 25 199 0
290 -28 534 -163 102 -57 169 -37 268 79 198 231 212 297 89 417 -99 97 -272
183 -455 225 -129 30 -384 37 -543 14 -141 -19 -344 -69 -468 -114 -213 -78
-447 -218 -583 -349 -65 -62 -164 -190 -215 -277 -221 -377 -242 -879 -58
-1442 134 -410 362 -707 684 -893 225 -129 443 -176 774 -167 219 6 325 22
593 92 312 81 545 160 779 264 77 34 322 134 545 221 223 88 498 196 611 240
113 45 331 130 485 190 154 59 394 154 534 210 140 55 259 99 265 97 6 -3 30
-54 53 -113 174 -452 513 -1297 553 -1379 223 -455 527 -658 960 -642 220 8
455 67 751 187 159 66 450 211 511 255 109 80 107 165 -8 359 -70 116 -126
155 -202 141 -20 -3 -131 -53 -247 -110 -215 -106 -352 -162 -485 -197 -95
-25 -267 -35 -340 -19 -166 36 -311 170 -406 377 -54 115 -545 1366 -542 1376
4 11 61 35 553 230 182 72 356 143 388 159 111 56 124 126 51 266 -88 168
-122 197 -229 190 -62 -4 -120 -25 -510 -179 -321 -128 -443 -172 -451 -164
-6 6 -71 162 -144 346 -73 184 -146 356 -162 382 -60 96 -131 100 -335 19
-147 -58 -203 -94 -223 -140 -26 -63 -8 -128 125 -466 69 -176 132 -335 140
-353 14 -31 14 -33 -8 -41 -12 -5 -80 -32 -152 -61 -71 -29 -285 -112 -475
-186 -190 -74 -371 -146 -403 -159 -32 -14 -64 -25 -72 -25 -7 0 -28 38 -48
88 -202 509 -303 771 -331 856 -154 459 -156 841 -5 1072 107 165 322 288 504
288 68 0 89 -4 138 -29 75 -37 151 -120 222 -240 101 -171 149 -184 372 -96
134 53 172 73 208 111 27 28 30 38 30 94 0 55 -6 75 -47 158 -156 313 -358
512 -583 572 -74 20 -240 28 -320 16z"/>
</g>
</svg>
