<?xml version="1.0" standalone="no"?>
<!DOCTYPE svg PUBLIC "-//W3C//DTD SVG 20010904//EN"
 "http://www.w3.org/TR/2001/REC-SVG-20010904/DTD/svg10.dtd">
<svg version="1.0" xmlns="http://www.w3.org/2000/svg"
 width="831.000000pt" height="546.000000pt" viewBox="0 0 831.000000 546.000000"
 preserveAspectRatio="xMidYMid meet">

<g transform="translate(0.000000,546.000000) scale(0.100000,-0.100000)"
fill="#000000" stroke="none">
<path d="M4227 5450 c-149 -24 -274 -67 -438 -151 -311 -160 -573 -409 -634
-604 -6 -17 -9 -15 -28 19 -73 129 -127 176 -204 176 -45 0 -174 -43 -247 -83
-120 -65 -130 -128 -52 -317 51 -122 712 -1796 776 -1965 21 -55 47 -123 58
-151 l21 -51 -107 -43 c-390 -155 -729 -286 -831 -320 -211 -70 -475 -133
-723 -171 -113 -17 -353 -7 -453 20 -390 104 -649 446 -730 967 -21 132 -16
356 9 448 89 319 303 517 665 614 81 21 117 25 236 25 199 0 290 -28 534 -163
107 -60 170 -37 291 107 109 130 140 185 140 246 0 59 -16 90 -72 143 -128
122 -338 211 -577 245 -106 15 -373 6 -494 -16 -751 -137 -1225 -537 -1347
-1134 -26 -129 -29 -497 -5 -637 87 -504 274 -881 561 -1135 203 -179 450
-287 733 -321 129 -15 425 -4 561 21 315 57 756 192 1048 321 89 38 246 103
349 144 103 40 377 148 608 239 231 90 503 197 605 237 268 104 894 351 901
356 3 2 45 -94 92 -214 47 -119 156 -395 242 -612 260 -659 289 -723 394 -879
365 -547 948 -582 1883 -116 260 130 298 163 298 262 0 43 -8 68 -45 138 -92
176 -135 219 -220 219 -43 0 -78 -14 -265 -106 -220 -109 -356 -164 -490 -200
-95 -25 -267 -35 -340 -19 -157 34 -297 157 -393 347 -23 46 -241 591 -467
1167 -57 144 -90 241 -84 246 5 5 214 90 464 190 250 100 474 192 496 206 45
27 74 75 74 122 -1 71 -111 264 -175 303 -32 19 -46 22 -103 17 -56 -4 -137
-33 -501 -177 -239 -94 -441 -170 -449 -168 -9 2 -64 126 -147 333 -149 373
-161 398 -205 440 -29 27 -37 30 -98 29 -57 0 -87 -9 -197 -53 -148 -59 -195
-88 -220 -135 -33 -60 -19 -114 118 -466 70 -179 134 -340 142 -358 14 -31 14
-33 -8 -41 -12 -5 -112 -45 -222 -89 -110 -43 -312 -123 -450 -177 -137 -54
-290 -113 -338 -133 -75 -29 -91 -33 -102 -21 -27 29 -350 860 -399 1027 -75
257 -102 505 -77 691 30 227 149 401 340 499 114 59 174 76 266 76 68 0 89 -4
138 -29 75 -37 149 -118 224 -242 96 -161 145 -175 346 -102 142 53 194 79
232 119 27 28 30 38 30 93 0 54 -6 75 -47 157 -111 226 -278 425 -421 505
-140 77 -316 109 -470 85z"/>
</g>
</svg>
